<?xml version="1.0" encoding="utf-8"?>
<!-- Generator: Adobe Illustrator 18.0.0, SVG Export Plug-In . SVG Version: 6.00 Build 0)  -->
<!DOCTYPE svg PUBLIC "-//W3C//DTD SVG 1.1//EN" "http://www.w3.org/Graphics/SVG/1.1/DTD/svg11.dtd">
<svg version="1.1" id="Layer_1" xmlns="http://www.w3.org/2000/svg" xmlns:xlink="http://www.w3.org/1999/xlink" x="0px" y="0px"
	 viewBox="3.2 3.2 93.6 93.6" enable-background="new 3.2 3.2 93.6 93.6" xml:space="preserve">
<g>
	<path d="M47.6,82.4l-4.7,0c-0.6,0-1.2,0-1.9,0c-0.4,0-0.8,0-1.3,0l-0.5,0c-0.6,0-1.2,0-1.8,0c-0.6,0-1.2,0-1.8,0l-0.8,0l-1.2-0.1
		l-0.2-1c0-0.1,0-0.3,0-0.5L33,80.6l0.1-1.1c0-0.2,0-0.4,0.1-0.6l-0.4-0.2l0.3-1.1l-0.1,0c-0.1-0.1-0.1-0.2-0.2-0.4
		c-0.1-0.2-0.2-0.3-0.4-0.6c-0.2-0.2-0.3-0.3-0.4-0.4l-0.1-0.1c0,0,0-0.1-0.1-0.1c-0.2-0.1-0.4-0.3-0.6-0.5
		c-0.2-0.3-0.3-0.4-0.5-0.5c-0.2-0.1-0.3-0.2-0.4-0.3l-0.2-0.2c-0.1,0-0.1-0.1-0.1-0.1l-0.5,0c-0.5,0-0.9-0.2-1.2-0.6l-0.6-0.2
		l-0.1-0.8l1.2-0.2l0,0l-1.2,0c0-0.2,0-0.4,0-0.6c0,0,0,0,0,0l-1.1,0.1l-0.2-0.3c-0.3-0.1-0.6-0.2-0.8-0.4c-0.5,0-0.9-0.3-1.2-0.7
		c0-0.1-0.1-0.1-0.2-0.2c-0.1-0.2-0.2-0.3-0.3-0.5c-0.1-0.1-0.1-0.3-0.1-0.4c-0.1-0.1-0.2-0.2-0.2-0.3c-0.1-0.1-0.2-0.1-0.3-0.2
		L23,69.1c0,0-0.1,0-0.1,0c-0.3,0-0.6-0.1-0.9-0.2c-0.4,0-0.8-0.1-1.2-0.4c0,0,0,0,0,0c-0.1,0-0.3-0.1-0.4-0.1c-0.2,0-0.3,0-0.5-0.1
		l-0.6,0.1c-0.1,0-0.2,0-0.3,0c-0.7,0-1.2-0.4-1.4-1L16.7,67l-0.1-1c0-0.4,0.1-0.7,0.3-1c0,0,0,0,0-0.1c0-0.2,0-0.4,0.1-0.6
		c0-0.1-0.1-0.2-0.1-0.4l-0.1-0.4l0.2-0.4c0,0,0,0,0-0.1c-0.2-0.1-0.4-0.2-0.5-0.4c-0.3-0.4-0.5-0.9-0.5-1.3l0-0.5
		c-0.2-0.2-0.4-0.4-0.5-0.7c-0.1-0.2-0.2-0.3-0.2-0.5l-0.1-0.1c-0.3-0.2-0.5-0.4-0.7-0.8c-0.1-0.2-0.1-0.3-0.2-0.5
		c-0.1-0.1-0.2-0.3-0.2-0.4c-0.2-0.3-0.3-0.6-0.3-1c-0.3-0.3-0.4-0.6-0.5-1c0,0-0.1-0.1-0.2-0.2c-0.1-0.1-0.2-0.3-0.4-0.4
		c-0.1-0.1-0.2-0.2-0.3-0.3L12,54.9L11.8,53c0-0.1,0-0.1,0-0.2l-0.4-0.3l0.6-1.4l0.4-0.3c-0.8-0.2-1.3-0.7-1.6-1.4
		c-0.1-0.1-0.2-0.3-0.3-0.5c-0.2-0.3-0.4-0.7-0.5-1c-0.1-0.3-0.1-0.5,0-0.8l0.1-0.5l-0.4-0.3l0.3-0.9c0.1-0.3,0.5-0.9,1.5-0.9
		c0.2,0,0.4,0,0.6,0c0-0.3-0.1-0.6-0.1-0.8c-0.4,0.1-0.8,0-2.1-0.2l-0.6,0c-0.5-0.1-0.8-0.3-1.1-0.6c-0.4-0.5-0.3-1.2,0-1.7
		c-0.1-0.3-0.2-0.6-0.1-0.9c-0.1-0.1-0.1-0.1-0.2-0.2C8,40.1,8,40,7.9,40c-0.3-0.3-0.6-0.6-0.8-0.9c-0.1-0.1-0.2-0.3-0.2-0.5
		c0-0.1-0.1-0.2-0.1-0.3c-0.1-0.1-0.3-0.3-0.4-0.5c0-0.1-0.1-0.1-0.1-0.2c0,0-0.1-0.1-0.1-0.1c-0.2-0.2-0.3-0.4-0.4-0.6
		c-0.2-0.3-0.3-0.5-0.4-0.9l0-0.2l0-1l0.3-0.1l-0.2-1.4c0-0.3,0-0.5,0.1-0.7l0.2-0.6c0.1-0.2,0.1-0.4,0.2-0.6l-0.1-0.9
		c-0.1-0.2-0.2-0.3-0.2-0.5c-0.1-0.1-0.1-0.2-0.1-0.3c-0.1-0.1-0.1-0.2-0.2-0.3c-0.1-0.1-0.2-0.3-0.2-0.5c-0.1-0.1-0.2-0.2-0.3-0.3
		l-0.2-0.3c0,0-0.1-0.1-0.1-0.1C4,27.7,3.8,27,4,26.4c0-0.1,0-0.1,0-0.1c-0.1-0.4-0.1-0.9,0.1-1.3l0.7-1.2c0.1-0.3,0.3-0.5,0.6-0.6
		c0.1,0,0.2-0.1,0.2-0.2l0.1-0.1c0-0.1,0.1-0.2,0.1-0.4c0,0,0-0.1,0.1-0.1c0-0.1,0-0.2,0-0.2c0-0.2,0-0.3,0-0.5
		c0-0.4,0.2-0.8,0.4-1.1c0-0.1,0.1-0.2,0.1-0.3l0.2,0.1c0,0,0.1-0.1,0.1-0.1l-0.3-0.1c0.1-0.3,0.2-0.6,0.2-0.9l0.1-0.5
		c0-0.1,0-0.2-0.1-0.4c-0.1-0.1-0.1-0.1-0.2-0.2c-0.1-0.1-0.1-0.2-0.2-0.3L5.8,17l0.3-2.3l2.3,0.1l0.2,0.1l18.9,2.8
		c0.1,0,0.2,0,0.2,0l1,0.2l0.1,1.2l-2.5,18.6l24.1,28l0.1,1c0.1,0.1,0.1,0.3,0.2,0.4c0,0,0.1,0.1,0.1,0.1c0.3,0.3,0.4,0.6,0.5,0.9
		l0.1,0.5l0.3,0.4l0,0l0.1,0l0.1,0.3c0,0,0,0,0.1,0.1c0.4,0.2,0.7,0.5,0.8,0.9l0.1,0.2l0,2l-0.9-0.1c-0.2,0.3-0.5,0.4-0.9,0.5
		c0,0-0.1,0-0.1,0c0,0,0,0,0,0L51,73.8l-0.1,0.1c0,0.2,0,0.4-0.1,0.6l0,0l0.3,1l-0.5,0.3c0,0.1,0,0.1,0,0.2
		c-0.1,0.3-0.2,0.6-0.5,0.9c0,0-0.1,0.1-0.1,0.1c-0.1,0.1-0.1,0.1-0.2,0.2c0,0.1-0.1,0.1-0.1,0.2l0.3,0.5l-0.2,0.3
		c0.2,0.1,0.3,0.3,0.4,0.4l0.2,0.4c0.1,0.2,0.2,0.4,0.2,0.7c0.1,0.4,0.1,0.8-0.1,1.1c-0.1,0.1-0.1,0.2-0.2,0.3
		c-0.1,0.1-0.1,0.2-0.2,0.3c-0.1,0.2-0.2,0.5-0.3,0.7L47.6,82.4z M35.8,79.2c0.2,0.2,0.3,0.4,0.4,0.7c0,0,0,0,0,0.1
		c0.4,0,0.8,0,1.1,0c0.6,0,1.2,0,1.8,0l0.5,0c0.4,0,0.8,0,1.2,0c0.6,0,1.3,0,1.9,0l4.2-0.1l-0.2-0.3c0,0,0-0.1,0-0.1l-0.4-0.8
		l0.2-0.3l0,0l0.3-1.5l-0.1-0.7l0.7-0.4c0.1,0,0.1-0.1,0.2-0.1c0.1-0.1,0.2-0.2,0.3-0.3l0-0.9l0.1-0.1l0-0.1c0-0.1,0-0.2,0-0.3
		c0-0.2,0-0.4,0-0.6c0.1-0.4,0.2-0.7,0.5-0.9c0,0,0,0,0,0c0-0.1,0-0.2,0.1-0.3l0.2-0.5l0.6-0.3c0,0,0.1,0,0.1,0
		c-0.2-0.1-0.2-0.3-0.3-0.4c-0.1-0.1-0.2-0.4-0.2-0.8c-0.1-0.2-0.2-0.4-0.2-0.5l-0.1,0l-0.3-0.6c-0.1-0.1-0.1-0.3-0.2-0.4l-0.1-0.1
		l-0.2-1.5L24.1,39.3c-0.4-0.4-0.5-0.9-0.4-1.4c0-0.1,0-0.2,0-0.3L26,20.2L9.1,17.7c0.1,0.3,0.2,0.6,0.2,0.8c0,0.2,0,0.4,0,0.6
		c0,0.1,0,0.2,0,0.3l0,0.2c-0.1,0.6-0.2,1.2-0.5,1.7l0,0c0,0.1,0,0.2,0,0.2c0,0.2-0.1,0.4-0.2,0.6c0,0.2,0,0.4,0,0.6
		c0,0.1,0,0.2-0.1,0.4c0.1,0.6,0,1.2-0.5,1.6L7.6,25l-0.2,0c-0.1,0.1-0.2,0.2-0.3,0.2L6.6,26c0,0.2,0,0.4,0,0.6
		C6.8,26.7,6.9,26.8,7,27c0,0,0,0,0,0c0.3,0.2,0.5,0.4,0.6,0.7c0.1,0.2,0.1,0.3,0.1,0.5c0.1,0.2,0.2,0.3,0.3,0.5l0.1,0.1l0,0.3
		c0.2,0.2,0.3,0.5,0.3,0.8l0.1,1.2c0.1,0.6,0,1.1-0.3,1.6l-0.1,0.4l0.2,1.7c0,0.2,0.1,0.4,0,0.7c0,0.1,0,0.2-0.1,0.3
		c0.1,0.1,0.2,0.3,0.3,0.4c0,0.1,0.1,0.1,0.1,0.2c0.1,0.1,0.2,0.3,0.4,0.5c0.1,0.2,0.3,0.5,0.4,0.8c0.1,0.1,0.1,0.2,0.2,0.2
		c0.1,0.1,0.2,0.2,0.3,0.3l0.4,0l0.5,1.1c0.1,0.2,0.1,0.6,0.1,1c0.1,0.2,0.2,0.4,0.3,0.6c0,0,0,0.1,0,0.2l0.5-0.1l0.2-0.2l0.6,0
		c0.2,0,0.4,0,0.5,0.1c0.2,0.1,0.3,0.1,0.5,0.2h0l1.2,1.4c0,0.2,0,0.4-0.1,0.6c0.1,0.8,0.4,2.3,0.6,2.9c0,0.1,0.1,0.1,0.1,0.2
		c0.2,0.5,0.2,1,0.1,1.5c-0.2,0.6-0.6,1-1.2,1c0,0,0.1,0,0.1,0c0.3,0.1,0.5,0.3,0.7,0.6c0.4,0.4,0.6,0.9,0.5,1.4
		c0.1,0.3,0,0.7-0.1,1c0,0.1,0,0.3-0.1,0.5c-0.1,0.3-0.3,0.6-0.5,0.8c-0.1,0.1-0.2,0.2-0.3,0.3c0,0,0,0,0,0l0,0.3
		c0,0.1,0.1,0.1,0.1,0.2c0.2,0.2,0.3,0.4,0.5,0.5c0.2,0.2,0.4,0.5,0.5,0.7c0.1,0.1,0.1,0.2,0.1,0.3c0.1,0.1,0.3,0.3,0.4,0.6
		c0.1,0.2,0.1,0.4,0.2,0.5l0.1,0.1l0.1,0.3l0.3,0.2l0.1,0.7c0,0,0.1,0,0.1,0.1c0.5,0.3,0.7,0.7,0.8,1c0,0.1,0,0.1,0,0.2h0.1l0.6,0.4
		l0.2,0.3c0.2,0.3,0.2,0.6,0.2,0.7c0.1,0.3,0,0.5,0,0.7c0,0,0,0,0,0.1c0.2,0.1,0.4,0.3,0.5,0.5c0.2,0.2,0.3,0.4,0.4,0.8
		c0.1,0.4,0.1,0.8-0.1,1.2c0,0.1-0.1,0.2-0.1,0.3c0.1,0.2,0.1,0.5,0.1,0.8c0,0.1,0,0.2,0,0.3c0,0,0,0.1-0.1,0.2l0.2,0.6l0,0
		c0.2,0,0.4,0,0.7,0.1l0.1,0c0.1,0,0.2,0,0.3,0l0.1,0l0.4,0c0.2,0,0.4,0.1,0.7,0.3l0.6-0.2l0.5,0.5c0.3,0,0.7,0.1,0.9,0.3l0.4,0.2
		c0.2,0.1,0.4,0.3,0.6,0.5l0.1,0.1c0.1,0.1,0.2,0.2,0.3,0.3c0,0,0,0,0,0c0.5,0.3,0.7,0.8,0.8,1.1l0,0.1c0.1,0.1,0.2,0.1,0.3,0.2
		c0.1,0,0.1,0.1,0.2,0.1l0.5,0l0.2,0.2c0.2,0,0.5,0,0.7,0.1c0.3,0.1,0.6,0.2,0.8,0.3c0.3,0.1,0.5,0.3,0.6,0.6c0.2,0.3,0.4,0.7,0.5,1
		c0,0,0,0,0,0c0.2,0,0.5,0.1,0.7,0.2l0.2,0.1l0.3,0.2c0.3,0.3,0.5,0.5,0.6,0.8l0.1,0.1c0.4,0.2,0.8,0.6,1.1,0.9
		c0.3,0.2,0.6,0.4,0.8,0.8c0,0.1,0.1,0.1,0.1,0.2l0.2,0.2c0.3,0.3,0.7,0.8,0.9,1.4c0,0.1,0.1,0.1,0.1,0.2l0.1,0.1
		c0.1,0.3,0.2,0.5,0.3,0.8c0,0,0,0,0,0l0.1,0.2c0.1,0.3,0.1,0.5,0.1,0.7C35.8,78.7,35.8,78.9,35.8,79.2z M33,77.7c0,0.1,0,0.2,0,0.2
		l1.2-0.7L33,77.7z M12.9,47c0.1,0.3,0.3,0.5,0.6,0.6C13.3,47.5,13.1,47.3,12.9,47L12.9,47z M6.5,20.4l1,0.3l-0.9-0.4
		C6.6,20.4,6.6,20.4,6.5,20.4z"/>
</g>
<g>
	<path d="M92.7,37.5l-4.3,0.7c-0.2-0.6-0.4-0.9-0.6-1.1c-0.2-0.2-0.5-0.4-0.9-0.6v3.4c2.4,0.6,3.9,1.3,4.7,2c1,0.9,1.6,2.1,1.6,3.6
		c0,0.8-0.2,1.6-0.6,2.3c-0.4,0.7-0.9,1.3-1.4,1.8c-0.6,0.5-1.2,0.8-1.9,1c-0.7,0.2-1.5,0.3-2.4,0.4v2.2h-1.7v-2.2
		c-1.1-0.1-2.1-0.3-2.8-0.6c-0.7-0.3-1.3-0.6-1.8-1.1c-0.5-0.5-0.9-1-1.2-1.5c-0.3-0.5-0.5-1.2-0.6-2l4.7-0.5
		c0.1,0.8,0.3,1.3,0.6,1.7s0.6,0.6,1.2,0.9v-4.1c-1.6-0.4-2.7-0.8-3.3-1.1c-0.7-0.3-1.2-0.8-1.7-1.5s-0.7-1.6-0.7-2.6
		c0-1.4,0.5-2.5,1.4-3.5c1-0.9,2.4-1.4,4.3-1.5v-1.2h1.7v1.2c1.7,0.1,3.1,0.5,4,1.2C91.8,35.3,92.4,36.3,92.7,37.5z M85.2,36.4
		c-0.5,0.2-0.8,0.4-1,0.6c-0.2,0.2-0.3,0.5-0.3,0.9c0,0.3,0.1,0.6,0.3,0.9c0.2,0.3,0.5,0.5,1,0.6V36.4z M86.9,47.8
		c0.7-0.1,1.1-0.4,1.4-0.7c0.3-0.3,0.5-0.7,0.5-1.1c0-0.4-0.1-0.7-0.4-1c-0.3-0.3-0.8-0.6-1.5-0.9V47.8z"/>
</g>
<path d="M42.3,35.3l-2-2.7l-3.7,8.5l9.2-1.1l-1.9-2.6c9.7-5,21.5-3.2,29.3,4.6l1.9-1.9C66.3,31.4,53.1,29.5,42.3,35.3z"/>
</svg>
