<?xml version="1.0" encoding="utf-8"?>
<!-- Generator: Adobe Illustrator 18.0.0, SVG Export Plug-In . SVG Version: 6.00 Build 0)  -->
<!DOCTYPE svg PUBLIC "-//W3C//DTD SVG 1.1//EN" "http://www.w3.org/Graphics/SVG/1.1/DTD/svg11.dtd">
<svg version="1.1" id="Layer_1" xmlns="http://www.w3.org/2000/svg" xmlns:xlink="http://www.w3.org/1999/xlink" x="0px" y="0px"
	 viewBox="0 0 100 100" enable-background="new 0 0 100 100" xml:space="preserve">
<g>
	<path d="M66.3,14.4c4.1,0,7.5,3.4,7.5,7.5s-3.3,7.5-7.5,7.5s-7.5-3.4-7.5-7.5S62.2,14.4,66.3,14.4z"/>
	<path d="M55.2,47.1v-5.9h2.3v5.9h17.7l0-5.9h2.3v5.9h5.9v-6.3c0-5-2.9-9.8-8.7-9.8l-16.8,0c-5.3,0-8.6,4.3-8.6,9.7v6.5L55.2,47.1
		L55.2,47.1z"/>
</g>
<path d="M16.7,26.8v20.3h9.7V26.8H16.7z M24.6,45.3h-6.2v-6.2h6.2V45.3z M18.4,37.4v-1.8h6.2v1.8H18.4z M18.4,33.8v-1.8h6.2v1.8
	H18.4z M18.4,30.3v-1.8h6.2v1.8H18.4z"/>
<path stroke="#000000" stroke-width="2.8609" d="M52.8,75.4"/>
<path d="M7.3,49.9v8.7h8.3v32.9h69.8V58.6h7.9v-8.7H7.3z M50.6,84.2c-6.1,0-11.6-2.9-14.2-7.3l-0.1-0.1c-0.2-0.3-2-2.5-3.5-2.9
	c-0.7-0.2-1.4-1.2-1.4-1.9v-0.8c0-0.8,0.7-1.7,1.4-1.9c1.5-0.4,3.4-2.6,3.6-2.9l0.1-0.1c2.6-4.4,8.1-7.2,14.1-7.2
	c6,0,11.5,2.8,14.1,7.1l0.1,0.1c0.2,0.3,2.2,2.6,3.7,3c0.7,0.2,1.4,1.2,1.4,1.9V72c0,0.8-0.7,1.7-1.4,1.9c-1.5,0.4-3.4,2.8-3.9,3.3
	C61.9,81.5,56.5,84.2,50.6,84.2z"/>
<path d="M63.9,73.3c-0.7,0-1.3-0.6-1.3-1.3c0-0.7,0.6-1.3,1.3-1.3s1.3,0.6,1.3,1.3C65.2,72.7,64.6,73.3,63.9,73.3L63.9,73.3z
	 M59.5,73.3c-0.7,0-1.3-0.6-1.3-1.3c0-0.7,0.6-1.3,1.3-1.3s1.3,0.6,1.3,1.3C60.8,72.7,60.2,73.3,59.5,73.3L59.5,73.3z M55,73.3
	c-0.7,0-1.3-0.6-1.3-1.3c0-0.7,0.6-1.3,1.3-1.3c0.7,0,1.3,0.6,1.3,1.3C56.4,72.7,55.8,73.3,55,73.3L55,73.3z"/>
<path d="M61,69.1c-0.7,0-1.3-0.6-1.3-1.3s0.6-1.3,1.3-1.3c0.7,0,1.3,0.6,1.3,1.3S61.8,69.1,61,69.1L61,69.1z M56.6,69.1
	c-0.7,0-1.3-0.6-1.3-1.3s0.6-1.3,1.3-1.3c0.7,0,1.3,0.6,1.3,1.3S57.3,69.1,56.6,69.1L56.6,69.1z"/>
<path d="M61.1,77.5c-0.7,0-1.3-0.6-1.3-1.3c0-0.7,0.6-1.3,1.3-1.3c0.7,0,1.3,0.6,1.3,1.3C62.5,76.9,61.9,77.5,61.1,77.5L61.1,77.5z
	 M56.7,77.5c-0.7,0-1.3-0.6-1.3-1.3c0-0.7,0.6-1.3,1.3-1.3c0.7,0,1.3,0.6,1.3,1.3C58,76.9,57.4,77.5,56.7,77.5L56.7,77.5z
	 M52.3,77.5c-0.7,0-1.3-0.6-1.3-1.3c0-0.7,0.6-1.3,1.3-1.3c0.7,0,1.3,0.6,1.3,1.3C53.6,76.9,53,77.5,52.3,77.5L52.3,77.5z"/>
<path d="M55.8,64.8c-0.7,0-1.3-0.6-1.3-1.3c0-0.7,0.6-1.3,1.3-1.3c0.7,0,1.3,0.6,1.3,1.3C57.1,64.2,56.6,64.8,55.8,64.8L55.8,64.8z"
	/>
<path d="M55.3,81.6c-0.7,0-1.3-0.6-1.3-1.3s0.6-1.3,1.3-1.3c0.7,0,1.3,0.6,1.3,1.3S56,81.6,55.3,81.6L55.3,81.6z M50.9,81.6
	c-0.7,0-1.3-0.6-1.3-1.3s0.6-1.3,1.3-1.3c0.7,0,1.3,0.6,1.3,1.3S51.6,81.6,50.9,81.6L50.9,81.6z M46.5,81.6c-0.7,0-1.3-0.6-1.3-1.3
	s0.6-1.3,1.3-1.3c0.7,0,1.3,0.6,1.3,1.3S47.2,81.6,46.5,81.6L46.5,81.6z"/>
<path d="M49.6,28.1c0-3.1-2.5-5.7-5.6-5.7v-4.9h-4.1l1.5-7.9l-1.7-0.3l-1.5,8.2h-8.6v29.6H44V33.8C47.1,33.7,49.6,31.2,49.6,28.1z
	 M36.4,26.6h-5.1v-7.4h6.5L36.4,26.6z M42.3,26.6h-4.1l1.4-7.4h2.7V26.6z M44,32v-7.9c2.1,0.1,3.8,1.8,3.8,4S46.2,32,44,32z"/>
</svg>
