<?xml version="1.0" encoding="utf-8"?>
<!-- Generator: Adobe Illustrator 18.0.0, SVG Export Plug-In . SVG Version: 6.00 Build 0)  -->
<!DOCTYPE svg PUBLIC "-//W3C//DTD SVG 1.1//EN" "http://www.w3.org/Graphics/SVG/1.1/DTD/svg11.dtd">
<svg version="1.1" id="Layer_1" xmlns="http://www.w3.org/2000/svg" xmlns:xlink="http://www.w3.org/1999/xlink" x="0px" y="0px"
	 viewBox="0 0 50.4 50.4" enable-background="new 0 0 50.4 50.4" xml:space="preserve">
<g id="Layer_1_1_">
	<path d="M38.9,34.9c-0.7,0.6-1.9,1.3-3.5,1.3c-1.6,0-2.8-0.7-3.5-1.3c-0.7,0.6-1.9,1.3-3.5,1.3c-1.6,0-2.8-0.7-3.5-1.3
		c-0.7,0.6-1.9,1.3-3.5,1.3c-1.6,0-2.8-0.7-3.5-1.3c-0.7,0.6-1.9,1.3-3.5,1.3c-1.6,0-2.8-0.7-3.5-1.3c-0.7,0.6-1.8,1.1-3.1,1.3
		l3.2,5.8h27.7l2.7-5.9C40.5,35.8,39.6,35.5,38.9,34.9z"/>
	<path d="M46.4,30.6c-0.2-0.7-0.7-1-1.5-1c-0.5,0-1,0.2-1.3,0.4c-3.1-6.1-11.9-10.4-18.8-10.4c-6.5,0-15.4,4.4-18.5,10.4
		c-0.3-0.2-0.8-0.4-1.4-0.4c-0.7,0-1.2,0.3-1.5,1c-0.2,0.7-0.2,1.3,0.2,1.9c0.7,1,2.2,1.6,3.6,1.5c1.5-0.1,2.3-0.8,2.8-1.4l0.8-0.9
		l0.8,0.9c0.5,0.6,1.4,1.4,2.7,1.4c1.3,0,2.1-0.7,2.7-1.4l0.8-0.9l0.8,0.9c0.6,0.6,1.4,1.4,2.7,1.4c1.3,0,2.1-0.7,2.7-1.4l0.8-0.9
		l0.8,0.9c0.5,0.6,1.3,1.4,2.7,1.4c1.3,0,2.1-0.7,2.7-1.4l0.8-0.9l0.8,0.9c0.5,0.6,1.3,1.4,2.7,1.4c1.3,0,2.1-0.7,2.7-1.4l0.8-0.9
		c0,0,1.3,2.1,3.5,2.2l0.3,0c0.1,0,0.2,0,0.2,0c1.3,0,2.6-0.6,3.2-1.5C46.5,31.9,46.6,31.3,46.4,30.6z M20.2,24.9
		c-0.9,1.1-1.8,1-2.2,0.6c-0.4-0.4-0.6-1.3,0.5-2.2c1-0.9,2.6-1,2.6-1S21,23.9,20.2,24.9z M24.8,27c-0.6,0-1.4-0.6-1.3-2.1
		c0.1-1.4,1.3-2.6,1.3-2.6s1.2,1.2,1.3,2.6C26.2,26.4,25.4,27,24.8,27z M31.3,25.5c-0.4,0.4-1.3,0.5-2.2-0.6c-0.8-1-0.8-2.6-0.8-2.6
		s1.6,0.1,2.6,1C31.9,24.2,31.8,25.1,31.3,25.5z"/>
</g>
<g id="Layer_2">
	<path d="M25.5,17.4c0,0-0.1,0-0.1,0c-0.9-0.2-2.4-1.1-2.3-3.4c0.1-1.2,0.8-1.8,1.5-2.3c0.6-0.4,0.9-0.7,0.9-1.2
		c0-1.6-1.2-2.4-1.2-2.4c-0.3-0.2-0.3-0.5-0.2-0.8C24.2,7,24.6,6.9,24.8,7c0.1,0.1,1.8,1.2,1.8,3.4c0,1.1-0.8,1.7-1.4,2.1
		c-0.6,0.5-1,0.8-1,1.4c-0.1,1.8,1.2,2.2,1.4,2.2c0.3,0.1,0.5,0.4,0.5,0.7C26,17.2,25.8,17.4,25.5,17.4L25.5,17.4z"/>
	<path d="M30.2,17.4c0,0-0.1,0-0.1,0c-0.7-0.1-2.1-0.9-2-2.7c0.1-1,0.8-1.5,1.3-1.9c0.5-0.3,0.7-0.5,0.7-0.8c0-1.1-0.9-1.6-0.9-1.7
		c-0.3-0.2-0.4-0.5-0.2-0.8c0.2-0.3,0.5-0.4,0.8-0.2c0.1,0,1.6,0.9,1.5,2.7c0,0.9-0.7,1.3-1.2,1.7c-0.5,0.3-0.7,0.5-0.8,1
		c-0.1,1.3,1,1.5,1,1.5c0.3,0.1,0.5,0.4,0.5,0.7C30.7,17.2,30.5,17.4,30.2,17.4L30.2,17.4z"/>
	<path d="M20.3,17.4c0,0-0.1,0-0.1,0c-0.7-0.1-2.1-0.9-2-2.7c0.1-1,0.8-1.5,1.3-1.9c0.5-0.3,0.7-0.5,0.7-0.8c0-1.1-0.9-1.6-0.9-1.7
		c-0.3-0.2-0.4-0.5-0.2-0.8c0.2-0.3,0.5-0.4,0.8-0.2c0.1,0,1.6,0.9,1.5,2.7c0,0.9-0.7,1.3-1.2,1.7c-0.5,0.3-0.7,0.5-0.8,1
		c-0.1,1.2,0.8,1.5,1,1.5c0.3,0.1,0.5,0.4,0.5,0.7C20.8,17.2,20.6,17.4,20.3,17.4L20.3,17.4z"/>
</g>
</svg>
