<?xml version="1.0" encoding="utf-8"?>
<!-- Generator: Adobe Illustrator 18.0.0, SVG Export Plug-In . SVG Version: 6.00 Build 0)  -->
<!DOCTYPE svg PUBLIC "-//W3C//DTD SVG 1.1//EN" "http://www.w3.org/Graphics/SVG/1.1/DTD/svg11.dtd">
<svg version="1.1" id="Layer_1" xmlns="http://www.w3.org/2000/svg" xmlns:xlink="http://www.w3.org/1999/xlink" x="0px" y="0px"
	 viewBox="0 0 100 100" enable-background="new 0 0 100 100" xml:space="preserve">
<g>
	<path d="M84.3,55.1H46.2V15.8c0-0.1,0-0.2-0.1-0.3c-0.1-0.1-0.2-0.1-0.3-0.1c-10,0.2-19.3,4.3-26.3,11.4
		c-7,7.1-10.8,16.6-10.8,26.6c0,21,17.1,38.1,38,38.1c9.8,0,19.1-3.7,26.2-10.5c7.1-6.7,11.3-15.8,11.7-25.5c0-0.1,0-0.2-0.1-0.3
		C84.6,55.2,84.5,55.1,84.3,55.1z M46.8,90.7c-20.5,0-37.2-16.7-37.2-37.3c0-20.3,15.7-36.5,35.9-37.2v39.3c0,0.2,0.2,0.4,0.4,0.4
		h38.1C82.8,75.4,66.5,90.7,46.8,90.7z"/>
	<path d="M80.4,18.2c-7.4-7.2-17-11.1-27.2-11.1c-0.2,0-0.4,0.2-0.4,0.4l0,39.7c0,0.1,0,0.2,0.1,0.3s0.2,0.1,0.3,0.1h38.3
		c0.2,0,0.4-0.2,0.4-0.4c0-0.5,0.1-1.4,0.1-2.1C91.9,35,87.9,25.5,80.4,18.2z M91.1,46.8H53.6l0-39C74,8.1,91.2,25.1,91.2,45.1
		C91.2,45.7,91.2,46.3,91.1,46.8z"/>
</g>
</svg>
